<?xml version="1.0" encoding="UTF-8"?>
<svg version="1.1" xmlns="http://www.w3.org/2000/svg" width="1536" height="1024">
<path d="M0 0 C506.88 0 1013.76 0 1536 0 C1536 337.92 1536 675.84 1536 1024 C1029.12 1024 522.24 1024 0 1024 C0 686.08 0 348.16 0 0 Z " fill="#FDFDFD" transform="translate(0,0)"/>
<path d="M0 0 C0.65214981 -0.00191345 1.30429962 -0.0038269 1.97621155 -0.00579834 C3.35385525 -0.00715762 4.73151187 -0.00347906 6.10913086 0.00488281 C8.21172062 0.01556942 10.31345269 0.00498849 12.41601562 -0.0078125 C13.75651229 -0.00649052 15.09700843 -0.00392733 16.4375 0 C17.65429443 0.00225586 18.87108887 0.00451172 20.12475586 0.00683594 C23.13276777 0.25314669 24.80870452 0.59436841 27.28515625 2.265625 C29.86542 6.60702116 29.61777638 11.23936213 29.59765625 16.140625 C29.61376953 16.91792969 29.62988281 17.69523437 29.64648438 18.49609375 C29.65345187 26.78741348 26.88084114 32.17287162 21.32421875 38.28515625 C19.1755005 40.37212972 16.92961735 42.15532929 14.53515625 43.953125 C10.0319885 47.34581771 7.70411068 49.80477795 6.73388672 55.50366211 C5.59869012 65.02066119 6.20760174 74.48025493 7.15234375 83.98046875 C7.2329303 84.81454254 7.31351685 85.64861633 7.39654541 86.50796509 C7.73133548 89.94877152 8.06813318 93.38820456 8.45605469 96.82348633 C10.27890999 113.21537457 10.27890999 113.21537457 6.53515625 118.01953125 C5.45302043 119.10276013 4.36979142 120.18489873 3.28515625 121.265625 C1.57688791 124.80439017 1.57688791 124.80439017 0.41015625 128.265625 C-0.20472656 129.9671875 -0.20472656 129.9671875 -0.83203125 131.703125 C-1.12335938 132.54875 -1.4146875 133.394375 -1.71484375 134.265625 C-1.23917969 133.30076172 -1.23917969 133.30076172 -0.75390625 132.31640625 C6.30224206 118.65242845 17.81583426 101.79100551 32.28515625 95.265625 C33.27902344 95.0490625 34.27289063 94.8325 35.296875 94.609375 C38.55856212 93.50424648 38.55856212 93.50424648 39.97265625 90.17578125 C40.43019131 88.9002391 40.86671628 87.61702146 41.28515625 86.328125 C41.78272056 84.96039561 42.28538086 83.59450997 42.79296875 82.23046875 C43.04079102 81.55612793 43.28861328 80.88178711 43.54394531 80.18701172 C48.46629109 67.427176 56.91911558 57.28747656 69.28515625 51.265625 C77.76953686 47.72778623 85.15884243 46.81897843 94.28515625 46.890625 C103.05279155 46.76244497 111.07009912 46.1048598 119.47265625 43.515625 C120.25447266 43.27537598 121.03628906 43.03512695 121.84179688 42.78759766 C130.84016954 39.74426157 137.52554205 35.48918045 142.03515625 26.953125 C142.44765625 26.06625 142.86015625 25.179375 143.28515625 24.265625 C146.6744871 25.5636666 149.83827073 27.05226152 153.03515625 28.765625 C164.57325927 34.52618011 177.94936214 34.98714328 190.28515625 31.265625 C195.7551272 29.22033151 201.08624184 26.92668072 206.28515625 24.265625 C206.62546875 24.92949219 206.96578125 25.59335937 207.31640625 26.27734375 C213.37546026 37.31577991 220.92975057 39.78607823 232.48046875 43.15234375 C236.28515625 44.265625 236.28515625 44.265625 238.98828125 45.38671875 C245.23915732 47.05312528 251.84347728 46.62641096 258.28125 46.65625 C271.70781042 46.93759818 284.02064131 51.2088089 293.97265625 60.453125 C302.24341866 69.34516534 309.33832022 82.17713152 311.28515625 94.265625 C312.08953125 94.306875 312.89390625 94.348125 313.72265625 94.390625 C328.17739191 97.94091095 338.65940992 113.28606836 346.11328125 125.18359375 C347.52998902 127.53042975 348.92291315 129.88685958 350.28515625 132.265625 C349.54128346 130.40899168 348.78971877 128.55543962 348.03515625 126.703125 C347.6175 125.67058594 347.19984375 124.63804687 346.76953125 123.57421875 C345.6514915 121.08216698 344.55987545 119.11940474 343.09765625 116.86328125 C340.8539976 112.99206794 341.06269518 109.60765519 341.53515625 105.265625 C342.29986804 95.38025458 342.48179355 85.518048 342.5213623 75.60766602 C342.53051705 73.84590391 342.54584187 72.08416247 342.56750488 70.32250977 C342.59777865 67.80729384 342.60797817 65.29272174 342.61328125 62.77734375 C342.62560791 62.02378098 342.63793457 61.2702182 342.65063477 60.49382019 C342.62929036 55.36442024 341.70452102 51.81479725 339.28515625 47.265625 C337.16395525 45.41027373 335.21997575 43.88408781 332.91015625 42.328125 C325.34437384 36.86897949 321.05301903 31.5870833 319.28515625 22.265625 C318.79888524 16.05790993 318.76978815 9.06758256 321.28515625 3.265625 C324.67976582 -0.05874074 327.41820346 -0.11976061 332.0625 -0.1328125 C333.38056641 -0.13667969 334.69863281 -0.14054687 336.05664062 -0.14453125 C336.74072998 -0.13824707 337.42481934 -0.13196289 338.12963867 -0.12548828 C340.21274622 -0.10945129 342.29390627 -0.1253372 344.37695312 -0.14453125 C345.69630859 -0.14066406 347.01566406 -0.13679688 348.375 -0.1328125 C349.58019287 -0.12942871 350.78538574 -0.12604492 352.02709961 -0.12255859 C356.77186587 0.44276013 360.24615768 2.58683725 363.28515625 6.265625 C363.28515625 6.925625 363.28515625 7.585625 363.28515625 8.265625 C373.18515625 8.265625 383.08515625 8.265625 393.28515625 8.265625 C393.31609375 12.1946875 393.31609375 12.1946875 393.34765625 16.203125 C393.35676025 17.0293335 393.36586426 17.85554199 393.37524414 18.70678711 C393.3823957 20.55996259 393.33544145 22.41311808 393.28515625 24.265625 C392.28515625 25.265625 392.28515625 25.265625 390.24389648 25.37915039 C389.36934814 25.37391357 388.4947998 25.36867676 387.59375 25.36328125 C386.64951172 25.36005859 385.70527344 25.35683594 384.73242188 25.35351562 C383.73919922 25.34513672 382.74597656 25.33675781 381.72265625 25.328125 C380.72556641 25.32361328 379.72847656 25.31910156 378.70117188 25.31445312 C376.22910776 25.30262507 373.75716107 25.28614349 371.28515625 25.265625 C371.61515625 26.255625 371.94515625 27.245625 372.28515625 28.265625 C372.38893845 30.13084661 372.44016876 31.99919632 372.4609375 33.8671875 C372.70672757 47.22146151 373.36910133 59.46538577 377.28515625 72.265625 C377.78208984 73.90337891 377.78208984 73.90337891 378.2890625 75.57421875 C378.85598075 77.4409008 379.42292738 79.30757453 379.99110413 81.1738739 C388.14316982 107.95472374 394.01056463 133.44043365 388.77539062 161.57714844 C387.86896279 166.54805646 387.45572768 171.57669853 386.9453125 176.6015625 C386.26653367 180.36898581 385.27813299 183.00962926 383.28515625 186.265625 C375.00038317 191.78880706 361.37867134 190.14766114 351.9609375 188.359375 C323.65454396 182.24806021 298.75812846 168.39025961 278.65185547 147.57470703 C276.70270376 144.2815529 276.94688849 141.68011666 276.9921875 137.875 C276.99643234 137.17038635 277.00067719 136.46577271 277.00505066 135.73980713 C277.02179087 133.49801788 277.05943221 131.25714069 277.09765625 129.015625 C277.11270921 127.49220052 277.12639655 125.96876189 277.13867188 124.4453125 C277.17167834 120.71845559 277.22342771 116.99212937 277.28515625 113.265625 C276.96192383 114.06661621 276.63869141 114.86760742 276.30566406 115.69287109 C275.87092773 116.75586426 275.43619141 117.81885742 274.98828125 118.9140625 C274.56192383 119.96255371 274.13556641 121.01104492 273.69628906 122.09130859 C264.83344472 142.02810827 249.7229437 152.33134203 230.28515625 160.265625 C246.00062853 161.33108075 258.37474075 153.64757241 270.28515625 144.265625 C269.51225847 163.58806948 266.21852583 181.46551626 260.109375 199.79296875 C259.57763672 201.41912109 259.57763672 201.41912109 259.03515625 203.078125 C258.720625 203.99207031 258.40609375 204.90601563 258.08203125 205.84765625 C252.59859751 229.36728625 256.28515625 279.14696588 256.28515625 289.265625 C202.82515625 289.265625 149.36515625 289.265625 94.28515625 289.265625 C94.28515625 272.435625 94.28515625 255.605625 94.28515625 238.265625 C93.52098023 215.51018311 93.52098023 215.51018311 88.34765625 194.140625 C84.38162571 181.91882472 82.32525827 169.78326178 81.03515625 157.015625 C80.94266602 156.1095752 80.85017578 155.20352539 80.75488281 154.27001953 C80.63838379 152.99167236 80.63838379 152.99167236 80.51953125 151.6875 C80.44959961 150.93049805 80.37966797 150.17349609 80.30761719 149.39355469 C80.28420616 147.17561434 80.65280606 145.38345817 81.28515625 143.265625 C81.86910156 143.91917969 81.86910156 143.91917969 82.46484375 144.5859375 C93.64194207 156.48413894 107.4506479 160.50880364 123.28515625 162.265625 C123.28515625 161.605625 123.28515625 160.945625 123.28515625 160.265625 C122.45628906 160.17539062 121.62742187 160.08515625 120.7734375 159.9921875 C116.60485273 159.12392684 113.24444223 157.56823732 109.47265625 155.640625 C108.76560547 155.280896 108.05855469 154.92116699 107.33007812 154.55053711 C89.81535549 145.41722846 79.21462209 130.51124546 72.28515625 112.265625 C72.3008667 113.20881592 72.31657715 114.15200684 72.33276367 115.1237793 C72.38401632 118.63685648 72.42156616 122.14953398 72.44995117 125.6628418 C72.46499978 127.18080938 72.48544363 128.69873376 72.51147461 130.21655273 C72.54803278 132.40359177 72.56492148 134.59005396 72.578125 136.77734375 C72.59383545 138.09178467 72.6095459 139.40622559 72.62573242 140.76049805 C71.80926986 149.1633317 64.54625927 154.50205504 58.46875 159.65234375 C36.39486155 177.25067534 9.94281924 189.19674512 -18.58984375 189.578125 C-19.80341553 189.60471191 -19.80341553 189.60471191 -21.04150391 189.63183594 C-25.98002008 189.62568713 -29.51667374 189.14168475 -33.71484375 186.265625 C-36.85224259 182.40316854 -37.27629765 178.76487925 -37.77734375 173.890625 C-37.93096263 172.43996281 -38.08593808 170.98944371 -38.2421875 169.5390625 C-38.31808105 168.81428711 -38.39397461 168.08951172 -38.47216797 167.34277344 C-38.68626686 165.51022481 -38.97793174 163.68709706 -39.28125 161.8671875 C-40.69709193 153.37213592 -40.95755251 144.99210915 -41.02734375 136.390625 C-41.04490723 135.25657227 -41.0624707 134.12251953 -41.08056641 132.95410156 C-41.06904742 116.76762699 -36.98914718 101.85461308 -32.21484375 86.515625 C-27.6002814 71.55565914 -23.34596511 57.50032458 -23.08984375 41.703125 C-23.03881129 39.43090455 -22.98427732 37.15875931 -22.92578125 34.88671875 C-22.90821777 33.9011499 -22.8906543 32.91558105 -22.87255859 31.90014648 C-22.71484375 29.265625 -22.71484375 29.265625 -21.71484375 25.265625 C-28.64484375 25.265625 -35.57484375 25.265625 -42.71484375 25.265625 C-44.24750957 22.20029336 -43.81760846 18.99808228 -43.77734375 15.640625 C-43.77283203 14.93421875 -43.76832031 14.2278125 -43.76367188 13.5 C-43.7518825 11.75517225 -43.73394699 10.010388 -43.71484375 8.265625 C-42.86253174 8.26151611 -42.01021973 8.25740723 -41.13208008 8.25317383 C-37.95389027 8.2261208 -34.77701083 8.1769607 -31.59936523 8.11303711 C-30.22708944 8.08991522 -28.85463766 8.07547497 -27.48217773 8.07006836 C-25.50349904 8.06073835 -23.52507751 8.01705481 -21.546875 7.97265625 C-20.35811768 7.9569458 -19.16936035 7.94123535 -17.94458008 7.92504883 C-13.83374314 7.08572835 -12.43708782 5.37361096 -9.71484375 2.265625 C-6.07920081 -0.15813696 -4.3271581 0.00802972 0 0 Z " fill="#000000" transform="translate(199.71484375,382.734375)"/>
<path d="M0 0 C8.91 0 17.82 0 27 0 C27.32871094 1.87429688 27.65742187 3.74859375 27.99609375 5.6796875 C32.58703281 31.80032069 37.28950137 57.90069824 42 84 C43.57264355 79.57083091 44.66267198 75.19570937 45.58813477 70.58935547 C45.80561874 69.51503265 45.80561874 69.51503265 46.02749634 68.41900635 C46.50232826 66.06909581 46.97186031 63.71815941 47.44140625 61.3671875 C47.77209944 59.72617529 48.10315461 58.08523598 48.43455505 56.44436646 C49.30380098 52.13609074 50.16867853 47.82695018 51.0324707 43.51757812 C52.41728655 36.61327284 53.80923453 29.71040068 55.2002697 22.80734634 C55.68499435 20.39904432 56.16815868 17.99043358 56.65101624 15.58175659 C56.94774707 14.10511947 57.24449404 12.62848558 57.54125977 11.15185547 C57.79948013 9.86423309 58.0577005 8.57661072 58.32374573 7.24996948 C58.82904664 4.82157439 59.39841231 2.40635077 60 0 C68.58 0 77.16 0 86 0 C88.80352568 10.91334135 91.27474755 21.822296 93.453125 32.875 C93.76095074 34.42161734 94.06912428 35.96816549 94.37762451 37.51464844 C95.17670068 41.5250792 95.97114792 45.53641237 96.76452637 49.54797363 C97.57972395 53.6653671 98.39944549 57.78185967 99.21875 61.8984375 C100.816848 69.93143263 102.41004114 77.96538995 104 86 C109.697712 57.39464604 114.97768052 28.73140744 120 0 C128.58 0 137.16 0 146 0 C144.87500082 10.1249926 144.87500082 10.1249926 144.14065552 13.77774048 C143.97533325 14.60985046 143.81001099 15.44196045 143.63967896 16.29928589 C143.4609726 17.17843658 143.28226624 18.05758728 143.09814453 18.96337891 C142.90774597 19.91595581 142.71734741 20.86853271 142.5211792 21.84997559 C141.8953707 24.97624861 141.26412636 28.101397 140.6328125 31.2265625 C140.19268565 33.41972182 139.75290258 35.61295016 139.31344604 37.8062439 C138.15735534 43.57146858 136.99665511 49.3357557 135.83496094 55.09985352 C134.66196555 60.92409022 133.49325022 66.74918536 132.32421875 72.57421875 C131.00525399 79.14467239 129.68580712 85.7150274 128.36355591 92.28482056 C128.16213926 93.28572912 127.96072262 94.28663769 127.75320244 95.31787682 C127.36484355 97.24629304 126.97600223 99.17461218 126.58662605 101.10282326 C125.73812543 105.30832038 124.89650594 109.51471594 124.08099365 113.72674561 C123.94277632 114.4356362 123.80455898 115.14452679 123.66215324 115.87489891 C123.30216828 117.7261995 122.94641384 119.57832137 122.59103394 121.43051147 C122 124 122 124 121 125 C118.78144736 125.08783542 116.56011504 125.10694609 114.33984375 125.09765625 C113.34314415 125.09553383 113.34314415 125.09553383 112.3263092 125.09336853 C110.19666101 125.08775518 108.06711661 125.07520054 105.9375 125.0625 C104.49674631 125.05748671 103.05599097 125.05292351 101.61523438 125.04882812 C98.07678898 125.03778145 94.53840461 125.02050792 91 125 C89.63829521 119.21008146 88.28500298 113.41824019 86.9375 107.625 C86.63378983 106.32011124 86.63378983 106.32011124 86.32394409 104.98886108 C83.04362844 90.86077854 80.00084422 76.69791143 77.20874023 62.46533203 C77.07345917 61.78650467 76.9381781 61.10767731 76.79879761 60.40827942 C76.43700598 58.59183545 76.0816475 56.77411341 75.72680664 54.95629883 C75.0807378 52.32840242 74.24729784 50.37187763 73 48 C72.80177139 48.9204158 72.60354279 49.8408316 72.39930725 50.78913879 C70.53242355 59.45639465 68.66377452 68.12326824 66.79338932 76.78976917 C65.83182757 81.24547822 64.87089176 85.70132036 63.91137695 90.1574707 C62.98564899 94.456598 62.05828925 98.75537031 61.12978935 103.05389977 C60.77555444 104.6952424 60.42191114 106.33671283 60.06886482 107.97831154 C59.57489306 110.27469888 59.07883398 112.57062592 58.58227539 114.86645508 C58.43625885 115.5476239 58.29024231 116.22879272 58.13980103 116.93060303 C57.54256882 119.68299237 56.89171033 122.32486902 56 125 C45.77 125 35.54 125 25 125 C22.74999088 117.12496809 22.74999088 117.12496809 22.10978699 113.84049988 C21.96280869 113.09434921 21.81583038 112.34819855 21.66439819 111.57943726 C21.51113068 110.78518341 21.35786316 109.99092957 21.19995117 109.17260742 C21.03212631 108.31602036 20.86430145 107.45943329 20.69139099 106.57688904 C20.13901223 103.75364085 19.59095998 100.92957155 19.04296875 98.10546875 C18.65449606 96.11504723 18.26576354 94.12467641 17.87678528 92.13435364 C16.8518081 86.88581078 15.83054063 81.63655257 14.80999756 76.387146 C13.78911505 71.1397959 12.76445037 65.89318463 11.74023438 60.64648438 C7.79680098 40.43672322 3.87483689 20.22303308 0 0 Z " fill="#010101" transform="translate(744,293)"/>
<path d="M0 0 C8.25 0 16.5 0 25 0 C28.375 13.5 28.375 13.5 29.62573242 19.78808594 C29.76272049 20.4725882 29.89970856 21.15709045 30.04084778 21.86233521 C30.48180002 24.06914492 30.91868999 26.27673585 31.35546875 28.484375 C31.66481018 30.03669214 31.9744106 31.58895769 32.28425598 33.14117432 C33.0906961 37.18471301 33.89366609 41.22893287 34.69586182 45.27331543 C35.51841259 49.4170107 36.34431732 53.5600373 37.16992188 57.703125 C38.7831912 65.80144051 40.39278724 73.90048032 42 82 C43.40357616 77.30299834 44.51710086 72.67136144 45.40454102 67.84301758 C45.53002319 67.16567062 45.65550537 66.48832367 45.78479004 65.79045105 C46.19431587 63.57571299 46.59909397 61.36013523 47.00390625 59.14453125 C47.28978183 57.59463958 47.57599641 56.04481039 47.86253357 54.49504089 C48.6130572 50.43161454 49.35972494 46.36748996 50.10534668 42.30316162 C51.30119443 35.78794676 52.50259738 29.27375522 53.70463371 22.75967979 C54.12305743 20.48877448 54.53963127 18.21753571 54.95594788 15.94624329 C55.21220374 14.55375333 55.46850327 13.16127141 55.72485352 11.76879883 C55.9475441 10.55525223 56.17023468 9.34170563 56.39967346 8.09138489 C56.86162082 5.71258439 57.41227822 3.35088713 58 1 C66.58 1 75.16 1 84 1 C80.54737957 19.95405032 76.85306808 38.84316381 72.98010254 57.71496582 C71.73484352 63.78328299 70.49283829 69.85226301 69.25390625 75.921875 C69.11974934 76.57873795 68.98559242 77.23560089 68.84737015 77.91236877 C65.78539767 92.92017427 62.88902929 107.95787463 60 123 C50.1 123 40.2 123 30 123 C26.12816197 108.12600837 22.9278747 93.11098157 19.69903564 78.08764648 C18.94320211 74.57364212 18.18434983 71.06028977 17.42578125 67.546875 C15.94763163 60.69853777 14.47273208 53.84950451 13 47 C11.71907236 50.70032639 10.62748584 54.33661236 9.82666016 58.16894531 C9.61949371 59.15147278 9.41232727 60.13400024 9.19888306 61.14630127 C8.98114227 62.1963031 8.76340149 63.24630493 8.5390625 64.328125 C8.3072226 65.43113953 8.07538269 66.53415405 7.83651733 67.67059326 C7.0960253 71.19637584 6.36028753 74.72312873 5.625 78.25 C4.66041732 82.85970339 3.69386752 87.46899217 2.7265625 92.078125 C2.37733734 93.74421814 2.37733734 93.74421814 2.02105713 95.44396973 C0.08697776 104.64641389 -1.93628941 113.82577947 -4 123 C-14.23 123 -24.46 123 -35 123 C-43.56054688 80.19726562 -43.56054688 80.19726562 -44.08537292 77.57310486 C-44.43554649 75.82225741 -44.78573578 74.07141311 -45.13594055 72.3205719 C-46.0163693 67.91878479 -46.89652375 63.51694317 -47.77612305 59.11499023 C-49.42514473 50.86391347 -51.07661375 42.61335195 -52.73738861 34.36463165 C-53.48961256 30.62785491 -54.24047146 26.89080446 -54.9912262 23.1537323 C-55.34928168 21.37349107 -55.70802852 19.59338873 -56.06748962 17.81343079 C-56.56298189 15.35968543 -57.05615889 12.90548534 -57.54882812 10.45117188 C-57.69681351 9.72156754 -57.84479889 8.9919632 -57.99726868 8.24024963 C-59 3.22773132 -59 3.22773132 -59 1 C-50.42 1 -41.84 1 -33 1 C-29.35013723 18.9862607 -25.94251076 37.00108673 -22.6875 55.0625 C-22.22872556 57.59834528 -21.76974212 60.13415276 -21.31054688 62.66992188 C-20.20463466 68.77951662 -19.10125296 74.8895638 -18 81 C-17.67 81 -17.34 81 -17 81 C-16.80177139 80.01472321 -16.60354279 79.02944641 -16.39930725 78.01431274 C-14.53364954 68.74315989 -12.66499779 59.47261495 -10.79338932 50.20266151 C-9.83120331 45.43651815 -8.87008498 40.6701646 -7.91137695 35.90332031 C-6.98667344 31.3057525 -6.05920429 26.70875064 -5.12978935 22.11213303 C-4.7751387 20.35560481 -4.42149648 18.59887268 -4.06886482 16.84193802 C-3.5759782 14.38708422 -3.07955785 11.93297043 -2.58227539 9.47900391 C-2.43625885 8.74748611 -2.29024231 8.01596832 -2.13980103 7.26228333 C-1.11405216 2.22810432 -1.11405216 2.22810432 0 0 Z " fill="#010101" transform="translate(747,456)"/>
<path d="M0 0 C9.38088509 8.3253227 13.42533422 20.22631683 14.34835815 32.52108765 C14.43010942 35.24108566 14.45578456 37.95456216 14.453125 40.67578125 C14.45741013 41.67164246 14.46169525 42.66750366 14.46611023 43.69354248 C14.47181683 45.78771205 14.47238111 47.88190142 14.46801758 49.97607422 C14.46486579 53.13804887 14.48833568 56.29907861 14.51367188 59.4609375 C14.56736385 76.24199403 13.8904081 93.56217964 2.02734375 106.78515625 C-7.87605705 115.74641936 -20.21313792 118.4561102 -33.15625 118.21875 C-45.52025971 117.18514496 -55.81166948 112.63686572 -64.22265625 103.47265625 C-74.90164334 89.84566709 -74.33059161 73.34195299 -74.23876953 56.85400391 C-74.22269244 53.41789035 -74.23867684 49.98295278 -74.2578125 46.546875 C-74.27526816 29.35476072 -73.76664283 14.44336087 -61.59765625 1.09765625 C-45.53123799 -13.90710442 -16.80582321 -12.8290806 0 0 Z " fill="#010101" transform="translate(912.84765625,463.08984375)"/>
<path d="M0 0 C2.0456726 1.43432216 3.80779166 2.94247701 5.6015625 4.6796875 C6.21515625 5.25460937 6.82875 5.82953125 7.4609375 6.421875 C20.58450083 19.93802355 19.94765523 39.70153334 19.86230469 57.296875 C19.85151906 59.94033429 19.86230055 62.58312278 19.875 65.2265625 C19.88983087 82.31943576 18.38721332 98.505131 5.9765625 111.36328125 C-3.1823509 119.86495781 -15.14207515 122.16824204 -27.3125 121.93359375 C-39.42299328 120.93716076 -50.0970978 116.65132171 -58.3984375 107.6796875 C-67.1942657 96.0445739 -68.52294032 82.50058035 -68.63671875 68.36328125 C-68.64882637 66.90209618 -68.64882637 66.90209618 -68.66117859 65.41139221 C-68.67494629 63.35655456 -68.6857008 61.30169475 -68.69360352 59.24682617 C-68.70509048 57.17286336 -68.72548979 55.09892934 -68.75512695 53.02514648 C-68.99534608 36.17088962 -68.76791614 19.19566869 -56.80859375 5.9140625 C-42.1179905 -7.77412312 -17.34482678 -9.5481294 0 0 Z " fill="#010101" transform="translate(1196.3984375,459.3203125)"/>
<path d="M0 0 C12.33663008 9.4174275 17.56518875 21.51466591 20.3125 36.5 C20.44315383 37.91446976 20.54327677 39.33186162 20.625 40.75 C20.68945312 41.75804687 20.75390625 42.76609375 20.8203125 43.8046875 C21.49895037 64.48052114 16.86027103 87.00805016 2.78515625 102.81640625 C-7.07198567 112.14944656 -18.67242105 114.33722805 -31.75 114.0859375 C-42.24628906 113.56881577 -51.12009833 108.13085482 -58.375 100.75 C-72.89942843 82.31078423 -75.8413742 58.87570917 -74.1015625 36.18359375 C-72.30504668 22.09958762 -66.48381254 10.46738529 -55.578125 1.3515625 C-39.47807371 -10.35237549 -16.6387453 -10.93403262 0 0 Z " fill="#000000" transform="translate(401.375,292.25)"/>
<path d="M0 0 C10.36942034 8.71031309 14.87616483 18.806047 16.5625 32.1875 C17.04555363 38.78875247 17.03679845 45.40247547 17.00854492 52.01806641 C17.00003369 55.05049602 17.02889454 58.0810363 17.06054688 61.11328125 C17.11910316 77.27242541 16.09624598 93.54322977 4.78515625 106.171875 C-5.35873752 115.88014143 -17.30609381 117.68437582 -30.7734375 117.46484375 C-43.0506011 116.96225518 -51.93384121 112.13362948 -60.1875 103.375 C-68.33440488 93.63211831 -69.74843544 82.29602875 -69.73828125 70.015625 C-69.74256638 68.85681824 -69.7468515 67.69801147 -69.75126648 66.50408936 C-69.75699036 64.06002452 -69.75752442 61.61594266 -69.75317383 59.171875 C-69.75002188 55.46324048 -69.77347104 51.75541065 -69.79882812 48.046875 C-69.80110233 45.66145933 -69.80180405 43.27604154 -69.80078125 40.890625 C-69.809991 39.79647278 -69.81920074 38.70232056 -69.82868958 37.57501221 C-69.75368255 24.87802619 -67.06404699 13.52494093 -58.3984375 3.9296875 C-43.83761281 -10.01371706 -16.51444987 -11.57874023 0 0 Z " fill="#010101" transform="translate(916.4375,618.8125)"/>
<path d="M0 0 C61.46575342 0 61.46575342 0 71 9 C79.28734183 17.40244379 81.36459591 28.19139614 81.4375 39.625 C81.28688695 50.96225803 79.42715769 61.38508265 71.26171875 69.7890625 C68.24686107 72.51340927 66.05329033 74.22836705 62 75 C62.41507813 75.81855469 62.83015625 76.63710938 63.2578125 77.48046875 C67.76391111 86.40987016 72.16766336 95.38946777 76.53460693 104.38760376 C77.17895842 105.71409115 77.82467355 107.039917 78.47174072 108.36508179 C79.39128147 110.24934949 80.30566108 112.13603662 81.21875 114.0234375 C81.75435547 115.12606934 82.28996094 116.22870117 82.84179688 117.36474609 C84 120 84 120 84 122 C74.76 122 65.52 122 56 122 C54.35 118.390625 52.7 114.78125 51 111.0625 C46.39863515 101.01036152 41.73665173 90.98904204 37 81 C33.04 80.67 29.08 80.34 25 80 C25 93.86 25 107.72 25 122 C16.75 122 8.5 122 0 122 C0 81.74 0 41.48 0 0 Z " fill="#020202" transform="translate(942,457)"/>
<path d="M0 0 C60.05054945 0 60.05054945 0 70 9 C78.69068026 18.62390767 80.90557014 31.28087555 80.3828125 43.83984375 C79.69044656 53.29564646 76.80615765 62.20985684 70 69 C67.7362645 70.85835831 65.47444171 72.4163573 63 74 C63.62060407 79.14408941 65.96854997 83.37786133 68.25390625 87.94921875 C68.67421616 88.80304642 69.09452606 89.65687408 69.52757263 90.53657532 C70.8670311 93.25631565 72.21409748 95.97218418 73.5625 98.6875 C74.91379449 101.41384642 76.26335101 104.14099766 77.60813904 106.87055969 C78.44439243 108.56749708 79.28451236 110.26253543 80.12879944 111.95549011 C80.69454933 113.10226982 80.69454933 113.10226982 81.27172852 114.2722168 C81.60624527 114.94552536 81.94076202 115.61883392 82.28541565 116.31254578 C83 118 83 118 83 120 C73.76 120 64.52 120 55 120 C52.93562937 115.75058036 50.87219961 111.50072821 48.81103516 107.24975586 C48.11137008 105.80744123 47.41118646 104.36537801 46.71044922 102.92358398 C43.02112377 95.33178375 39.35804475 87.74600529 36 80 C32.37 79.67 28.74 79.34 25 79 C25 92.53 25 106.06 25 120 C16.75 120 8.5 120 0 120 C0 80.4 0 40.8 0 0 Z " fill="#020202" transform="translate(754,614)"/>
<path d="M0 0 C8.58 0 17.16 0 26 0 C33.7046599 15.32647399 41.31117912 30.67846927 48.65625 46.18017578 C50.05972979 49.12534139 51.48105011 52.06138235 52.90625 54.99609375 C53.37329346 55.96248779 53.84033691 56.92888184 54.3215332 57.92456055 C55.21149357 59.76540261 56.10565782 61.60422007 57.00463867 63.44067383 C57.3988501 64.25947021 57.79306152 65.0782666 58.19921875 65.921875 C58.54815186 66.63956055 58.89708496 67.35724609 59.2565918 68.09667969 C60 70 60 70 60 73 C61.32668089 71.89888855 61.32668089 71.89888855 61.12025452 69.14634705 C61.11803391 67.86949539 61.11581329 66.59264374 61.11352539 65.27709961 C61.11367142 64.5746965 61.11381744 63.8722934 61.1139679 63.14860535 C61.11326872 60.81648722 61.10547617 58.484448 61.09765625 56.15234375 C61.09579208 54.53951562 61.09436818 52.92668693 61.09336853 51.31385803 C61.08954323 47.06084643 61.07971285 42.80786876 61.06866455 38.55487061 C61.05845069 34.2182257 61.05387096 29.88157533 61.04882812 25.54492188 C61.03809059 17.02993058 61.0204937 8.51497341 61 0 C68.59 0 76.18 0 84 0 C84 39.6 84 79.2 84 120 C75.75 120 67.5 120 59 120 C47.45 96.9 35.9 73.8 24 50 C23.67 73.1 23.34 96.2 23 120 C15.41 120 7.82 120 0 120 C0 80.4 0 40.8 0 0 Z " fill="#000000" transform="translate(1168,614)"/>
<path d="M0 0 C8.58 0 17.16 0 26 0 C26.33 17.16 26.66 34.32 27 52 C34.46538166 39.22419222 41.91580125 26.44064884 49.3125 13.625 C49.96420166 12.49658691 50.61590332 11.36817383 51.28735352 10.20556641 C52.19118774 8.63814697 52.19118774 8.63814697 53.11328125 7.0390625 C53.91439331 5.65001709 53.91439331 5.65001709 54.73168945 4.23291016 C55.5223118 2.8409887 56.28410489 1.43179021 57 0 C66.9 0 76.8 0 87 0 C81.37609457 11.24781086 81.37609457 11.24781086 78.65234375 15.7421875 C78.05220459 16.73629639 77.45206543 17.73040527 76.83374023 18.75463867 C75.89510132 20.29921753 75.89510132 20.29921753 74.9375 21.875 C74.28789307 22.95692627 73.63828613 24.03885254 72.96899414 25.15356445 C69.79750227 30.4285455 66.58867934 35.67235608 63.28125 40.86328125 C62.71543213 41.7651416 62.14961426 42.66700195 61.56665039 43.59619141 C60.50481914 45.28512845 59.42655933 46.96388153 58.32983398 48.63037109 C57.85876221 49.38527832 57.38769043 50.14018555 56.90234375 50.91796875 C56.48460693 51.56531982 56.06687012 52.2126709 55.63647461 52.87963867 C54.45542499 56.8142056 56.53545657 60.07117689 58.29003906 63.5793457 C58.77698242 64.43616943 59.26392578 65.29299316 59.765625 66.17578125 C60.31919678 67.15651611 60.87276855 68.13725098 61.44311523 69.14770508 C62.33752319 70.71427856 62.33752319 70.71427856 63.25 72.3125 C64.51711413 74.55197751 65.78403554 76.79156408 67.05078125 79.03125 C67.70911439 80.19142483 68.36748046 81.35158098 69.02587891 82.51171875 C72.75774683 89.09588048 76.43081263 95.71324531 80.11621094 102.32348633 C83.55285113 108.46938916 87.07912476 114.5507516 90.69946289 120.59057617 C92 123 92 123 92 125 C81.77 125 71.54 125 61 125 C56.21184839 116.52865485 51.50515372 108.04195383 47.06640625 99.3828125 C46.73051987 98.7282457 46.39463348 98.07367889 46.04856873 97.39927673 C44.35797409 94.10048696 42.67608368 90.79754037 41.00366211 87.48950195 C40.37758965 86.2624569 39.75137539 85.03548419 39.125 83.80859375 C38.29355469 82.16588501 38.29355469 82.16588501 37.4453125 80.48999023 C36.24209716 77.89227712 36.24209716 77.89227712 34 77 C33.773125 77.680625 33.54625 78.36125 33.3125 79.0625 C32.17200481 81.61503685 31.19215114 83.04362622 29.4621582 85.14868164 C26.50502779 89.24122913 26.26709416 92.61528885 26.29296875 97.55859375 C26.27784744 98.34774673 26.26272614 99.13689972 26.24714661 99.94996643 C26.20449724 102.44610678 26.19545437 104.94103266 26.1875 107.4375 C26.16433776 109.14000573 26.13896884 110.84248296 26.11132812 112.54492188 C26.04458321 116.6972644 26.0233952 120.84628781 26 125 C17.42 125 8.84 125 0 125 C0 83.75 0 42.5 0 0 Z " fill="#000000" transform="translate(1075,293)"/>
<path d="M0 0 C1.27006897 -0.00505302 1.27006897 -0.00505302 2.5657959 -0.01020813 C4.3510548 -0.00990991 6.13636569 0.00527997 7.92138672 0.03442383 C10.64840505 0.0741046 13.3705578 0.05512633 16.09765625 0.02929688 C17.8359563 0.03685653 19.57424558 0.04781056 21.3125 0.0625 C22.12408569 0.0555159 22.93567139 0.0485318 23.77185059 0.04133606 C27.99989425 0.14637976 29.67062344 0.37296609 33.08007812 3.10229492 C43.73845436 16.75489279 43.9893775 36.19519997 45.15625 52.76171875 C42.18625 52.76171875 39.21625 52.76171875 36.15625 52.76171875 C36.04555176 52.14240479 35.93485352 51.52309082 35.82080078 50.88500977 C35.30954308 48.03106396 34.79541325 45.17764246 34.28125 42.32421875 C34.10722656 41.35033203 33.93320313 40.37644531 33.75390625 39.37304688 C32.6872609 33.46699205 31.49916502 27.61126299 30.15625 21.76171875 C29.49625 21.76171875 28.83625 21.76171875 28.15625 21.76171875 C27.50623322 24.76086594 26.86113963 27.76093676 26.21875 30.76171875 C26.03634766 31.60089844 25.85394531 32.44007813 25.66601562 33.3046875 C25.48876953 34.13613281 25.31152344 34.96757812 25.12890625 35.82421875 C24.96656494 36.57832031 24.80422363 37.33242188 24.63696289 38.109375 C23.46598926 44.57024729 22.99013711 50.85550092 22.953125 57.40625 C22.94457489 58.62014656 22.94457489 58.62014656 22.93585205 59.85856628 C22.92645726 61.56707477 22.91989021 63.27560093 22.91601562 64.98413086 C22.90641868 67.52948078 22.87538836 70.07398324 22.84375 72.61914062 C22.74846521 87.40028266 24.85525299 101.3820712 28.15625 115.76171875 C28.81625 115.76171875 29.47625 115.76171875 30.15625 115.76171875 C32.30097504 106.7871897 34.42932217 97.82808984 36.15625 88.76171875 C39.12625 88.76171875 42.09625 88.76171875 45.15625 88.76171875 C42.18930702 124.67734429 42.18930702 124.67734429 32.58935547 134.33862305 C29.12177633 136.36677063 25.79214402 136.22944597 21.8828125 136.23046875 C21.08144867 136.23808228 20.28008484 136.2456958 19.45443726 136.25354004 C17.76164865 136.26432856 16.06879355 136.2671992 14.37597656 136.26269531 C11.79638563 136.26172445 9.21978546 136.30332385 6.640625 136.34765625 C4.99219367 136.35286488 3.34375205 136.35555142 1.6953125 136.35546875 C0.9294986 136.37186401 0.16368469 136.38825928 -0.62533569 136.40515137 C-6.35814355 136.33181359 -8.82198721 134.84555524 -12.84375 130.76171875 C-18.76370744 122.19731332 -20.1093422 110.81004052 -21.84375 100.76171875 C-22.07191406 99.47007812 -22.30007812 98.1784375 -22.53515625 96.84765625 C-25.47000686 76.69364715 -25.03500552 54.84668319 -21.84375 34.76171875 C-21.74191406 34.07094238 -21.64007813 33.38016602 -21.53515625 32.66845703 C-16.61641867 -0.31289293 -16.61641867 -0.31289293 0 0 Z " fill="#010101" transform="translate(122.84375,328.23828125)"/>
<path d="M0 0 C1.84394044 -0.02158649 3.68777823 -0.05569742 5.53125 -0.10253906 C8.19195219 -0.16952744 10.85053653 -0.19699429 13.51196289 -0.21606445 C14.74345818 -0.25781044 14.74345818 -0.25781044 15.99983215 -0.30039978 C21.59432233 -0.28034497 21.59432233 -0.28034497 24.07489014 1.68089294 C31.6272029 10.50682612 33.7750469 23.261066 35.46118164 34.4050293 C35.61780273 35.42814209 35.61780273 35.42814209 35.77758789 36.47192383 C39.59118628 62.72661784 38.54927594 90.1621098 32.08618164 115.9050293 C31.901604 116.65212158 31.71702637 117.39921387 31.52685547 118.16894531 C29.86130236 124.22581584 27.20893187 129.55843031 22.81884766 134.10644531 C19.36760513 136.00736268 15.99446443 135.85321343 12.15258789 135.83862305 C11.34885239 135.8438649 10.54511688 135.84910675 9.71702576 135.85450745 C8.02002109 135.86092025 6.32297193 135.85960022 4.62597656 135.85107422 C2.03573044 135.84256886 -0.5523059 135.87132538 -3.14233398 135.90307617 C-4.79402603 135.90468852 -6.44572197 135.90411002 -8.09741211 135.90112305 C-8.8683873 135.91235703 -9.63936249 135.923591 -10.43370056 135.93516541 C-14.09056265 135.88800965 -16.30360085 135.55175247 -19.43237305 133.60009766 C-24.82743986 127.97804785 -26.53059054 120.70488011 -28.22631836 113.2800293 C-28.54765747 111.90874878 -28.54765747 111.90874878 -28.87548828 110.50976562 C-30.53034163 103.13896987 -31.39894916 95.97068165 -31.53881836 88.4050293 C-28.56881836 88.4050293 -25.59881836 88.4050293 -22.53881836 88.4050293 C-22.27327148 89.76756836 -22.00772461 91.13010742 -21.73413086 92.53393555 C-21.3775159 94.34516416 -21.02073634 96.15636037 -20.66381836 97.9675293 C-20.48979492 98.8627832 -20.31577148 99.75803711 -20.13647461 100.68041992 C-19.14918355 105.67172471 -18.02120582 110.53718941 -16.53881836 115.4050293 C-15.87881836 115.4050293 -15.21881836 115.4050293 -14.53881836 115.4050293 C-13.86237282 112.07360015 -13.19770355 108.73997495 -12.53881836 105.4050293 C-12.39154297 104.66913574 -12.24426758 103.93324219 -12.0925293 103.17504883 C-7.60197631 79.79712175 -7.33468276 53.65653422 -12.53881836 30.4050293 C-12.71960938 29.58550781 -12.90040039 28.76598633 -13.08666992 27.92163086 C-13.56631711 25.7484146 -14.05066345 23.57634736 -14.53881836 21.4050293 C-15.19881836 21.4050293 -15.85881836 21.4050293 -16.53881836 21.4050293 C-19.10776198 31.70574499 -21.26772304 41.85159317 -22.53881836 52.4050293 C-25.50881836 52.4050293 -28.47881836 52.4050293 -31.53881836 52.4050293 C-31.12597406 36.28345934 -30.42256425 13.68490005 -18.53881836 1.4050293 C-13.4866574 -1.12105119 -5.62046156 0.04950847 0 0 Z " fill="#010101" transform="translate(612.538818359375,328.594970703125)"/>
<path d="M0 0 C7.92 0 15.84 0 24 0 C24.495 26.235 24.495 26.235 25 53 C28.526875 46.8125 28.526875 46.8125 32.125 40.5 C37.69231272 30.74927744 43.28697229 21.01527606 48.9375 11.3125 C49.83202881 9.77335937 49.83202881 9.77335937 50.74462891 8.203125 C51.2916748 7.26597656 51.8387207 6.32882812 52.40234375 5.36328125 C52.88179443 4.54126221 53.36124512 3.71924316 53.85522461 2.87231445 C55 1 55 1 56 0 C57.99964982 -0.08758003 60.0023611 -0.10696576 62.00390625 -0.09765625 C63.21884766 -0.09443359 64.43378906 -0.09121094 65.68554688 -0.08789062 C66.96494141 -0.07951172 68.24433594 -0.07113281 69.5625 -0.0625 C70.84576172 -0.05798828 72.12902344 -0.05347656 73.45117188 -0.04882812 C76.63416022 -0.03699545 79.81705762 -0.02051068 83 0 C81.64099164 3.6204991 80.01520698 6.87749332 78.05859375 10.2109375 C77.47916016 11.2014209 76.89972656 12.1919043 76.30273438 13.21240234 C75.37944336 14.77788818 75.37944336 14.77788818 74.4375 16.375 C73.80779297 17.44830566 73.17808594 18.52161133 72.52929688 19.62744141 C69.04448785 25.55821541 65.53900015 31.47640537 62 37.375 C61.6481665 37.9637793 61.29633301 38.55255859 60.93383789 39.15917969 C59.35830663 41.78594524 57.75202486 44.38259022 56.0859375 46.953125 C55.52132813 47.83484375 54.95671875 48.7165625 54.375 49.625 C53.88773438 50.35976563 53.40046875 51.09453125 52.8984375 51.8515625 C51.71516934 54.6811168 52.21216178 56.05898964 53 59 C54.08483577 61.32849742 54.08483577 61.32849742 55.484375 63.640625 C56.00104736 64.53402588 56.51771973 65.42742676 57.05004883 66.34790039 C57.61103271 67.30559326 58.1720166 68.26328613 58.75 69.25 C63.6505201 77.7520167 68.32832325 86.33374384 72.8125 95.0625 C76.92599654 103.0668094 81.14200068 110.96290425 85.70703125 118.71875 C87 121 87 121 87 122 C77.1 122 67.2 122 57 122 C55.85402344 119.68484375 54.70804688 117.3696875 53.52734375 114.984375 C52.39300551 112.70002342 51.25723767 110.41638792 50.12133789 108.1328125 C49.34315417 106.56649509 48.56641781 104.99945762 47.79125977 103.43164062 C43.16816794 94.08385056 38.42297188 84.91608375 33 76 C24.08627198 85.18403327 23.84399277 92.99541108 24 105.1875 C23.99189172 106.82358959 23.98019947 108.45966551 23.96484375 110.09570312 C23.92865448 114.06646993 23.96583999 118.02676365 24 122 C16.08 122 8.16 122 0 122 C0 81.74 0 41.48 0 0 Z " fill="#000000" transform="translate(1039,457)"/>
<path d="M0 0 C23.43 0 46.86 0 71 0 C71 7.92 71 15.84 71 24 C56.15 24 41.3 24 26 24 C26 32.58 26 41.16 26 50 C39.2 50 52.4 50 66 50 C66 57.92 66 65.84 66 74 C52.8 74 39.6 74 26 74 C26 82.91 26 91.82 26 101 C41.51 101 57.02 101 73 101 C73 108.92 73 116.84 73 125 C48.91 125 24.82 125 0 125 C0 83.75 0 42.5 0 0 Z " fill="#020202" transform="translate(902,293)"/>
<path d="M0 0 C8.25 0 16.5 0 25 0 C25.01458252 2.62912354 25.02916504 5.25824707 25.04418945 7.96704102 C25.09457986 16.66435859 25.16118291 25.36149796 25.23571491 34.05864048 C25.28039714 39.33050056 25.31965812 44.60228374 25.34643555 49.87426758 C25.37248976 54.96428593 25.41290748 60.05400802 25.46318626 65.1438427 C25.47984059 67.08340704 25.49136379 69.02302261 25.49761391 70.96264839 C25.50727052 73.68447884 25.53534851 76.40555381 25.56762695 79.12719727 C25.56547432 80.32374435 25.56547432 80.32374435 25.5632782 81.54446411 C25.65008782 86.73766654 26.58841331 90.37802053 29 95 C33.3640569 99.09130334 37.7598682 99.29004911 43.4921875 99.21484375 C46.94821279 98.91876682 49.17426516 97.9986905 52 96 C56.09675387 90.49057239 56.1573154 85.22521708 56.20532227 78.55957031 C56.21522186 77.71042557 56.22512146 76.86128082 56.23532104 75.98640442 C56.26687247 73.18367284 56.29166835 70.38092432 56.31640625 67.578125 C56.33698126 65.63327599 56.35797788 63.6884314 56.37937927 61.74359131 C56.43454338 56.62757955 56.48397763 51.51152781 56.53222656 46.39544678 C56.58248291 41.17375129 56.6381474 35.95211378 56.69335938 30.73046875 C56.80087173 20.48702688 56.90183226 10.24353569 57 0 C65.25 0 73.5 0 82 0 C82.04533997 11.0057557 82.08196726 22.01144848 82.10362434 33.01727676 C82.11402315 38.12874089 82.12811041 43.24013732 82.15087891 48.3515625 C82.17274729 53.29232185 82.18459791 58.23301644 82.18975449 63.1738205 C82.19342527 65.05068734 82.20059277 66.92755098 82.21146011 68.80438995 C82.3923808 101.37093456 82.3923808 101.37093456 70.625 114 C61.40324741 122.29555037 49.36238222 124.53439235 37.2890625 124.21875 C26.10995985 123.47524674 16.46227004 119.55391812 8.75390625 111.22265625 C-1.41802248 98.33217195 -0.28425568 82.34257883 -0.1953125 66.796875 C-0.1915751 64.86346585 -0.18873157 62.9300548 -0.18673706 60.99664307 C-0.17915782 55.94641751 -0.15955938 50.89630985 -0.1373291 45.84613037 C-0.11674664 40.67738438 -0.10770901 35.50861905 -0.09765625 30.33984375 C-0.07630726 20.22650278 -0.04117269 10.11327971 0 0 Z " fill="#010101" transform="translate(1230,457)"/>
<path d="M0 0 C23.1 0 46.2 0 70 0 C70 7.92 70 15.84 70 24 C55.48 24 40.96 24 26 24 C26 32.58 26 41.16 26 50 C39.2 50 52.4 50 66 50 C66 57.92 66 65.84 66 74 C52.8 74 39.6 74 26 74 C26 82.91 26 91.82 26 101 C41.18 101 56.36 101 72 101 C72 108.92 72 116.84 72 125 C48.24 125 24.48 125 0 125 C0 83.75 0 42.5 0 0 Z " fill="#010101" transform="translate(989,293)"/>
<path d="M0 0 C8.25 0 16.5 0 25 0 C25.01458252 2.63436035 25.02916504 5.2687207 25.04418945 7.98291016 C25.09455322 16.69220889 25.16115156 25.40132916 25.23571491 34.11045265 C25.28041968 39.39018855 25.31967571 44.66984726 25.34643555 49.94970703 C25.37246726 55.04620498 25.41286906 60.14240592 25.46318626 65.23871994 C25.47985581 67.18190183 25.49136954 69.12513509 25.49761391 71.06837845 C25.50725395 73.79280902 25.53531219 76.5164796 25.56762695 79.24072266 C25.56547432 80.44266266 25.56547432 80.44266266 25.5632782 81.66888428 C25.64418058 86.49982876 26.36388436 89.8016332 29 94 C32.53890271 97.27995861 35.28284269 98.2743502 40 98.4375 C44.31188932 98.24946272 47.37490251 97.47567634 51 95 C55.25198481 90.3081547 55.1624029 85.63709703 55.20532227 79.58129883 C55.21522186 78.72254654 55.22512146 77.86379425 55.23532104 76.97901917 C55.26692766 74.13838465 55.29169021 71.2977334 55.31640625 68.45703125 C55.3369765 66.48833276 55.35797299 64.51963868 55.37937927 62.5509491 C55.43459262 57.36751882 55.48400518 52.18404873 55.53222656 47.00054932 C55.58244694 41.71191868 55.63813021 36.42334591 55.69335938 31.13476562 C55.80093196 20.75655799 55.90187421 10.37830125 56 0 C63.92 0 71.84 0 80 0 C80.06795659 11.67494177 80.12292022 23.34975074 80.15543652 35.02484608 C80.17104792 40.44689637 80.19220311 45.86880354 80.22631836 51.29077148 C80.2590737 56.52979107 80.276887 61.76867356 80.28463173 67.0077877 C80.29014631 68.9999272 80.30091449 70.99205976 80.31719017 72.9841404 C80.43593464 88.12950306 80.29917348 101.51296443 69.06640625 112.97265625 C58.55495852 122.05686154 45.50422951 123.10562159 32.18408203 122.22314453 C22.07554224 121.19036951 13.75756191 116.61308839 7.21875 108.8984375 C1.4249513 100.86096185 -0.46860657 92.20425507 -0.34057617 82.41943359 C-0.34101425 81.52064484 -0.34145233 80.62185608 -0.34190369 79.6958313 C-0.33983519 76.76313562 -0.31659683 73.8310317 -0.29296875 70.8984375 C-0.28736588 68.85007031 -0.28309905 66.80169908 -0.28010559 64.75332642 C-0.26871121 59.39065234 -0.23929102 54.02822625 -0.20599365 48.66564941 C-0.17517566 43.18208164 -0.16157529 37.69847337 -0.14648438 32.21484375 C-0.11441571 21.47643662 -0.06169242 10.73827784 0 0 Z " fill="#020202" transform="translate(948,614)"/>
<path d="M0 0 C21.78 0 43.56 0 66 0 C66 7.92 66 15.84 66 24 C52.14 24 38.28 24 24 24 C24 31.92 24 39.84 24 48 C36.54 48 49.08 48 62 48 C62 55.59 62 63.18 62 71 C49.46 71 36.92 71 24 71 C24 79.25 24 87.5 24 96 C38.52 96 53.04 96 68 96 C68 103.92 68 111.84 68 120 C45.56 120 23.12 120 0 120 C0 80.4 0 40.8 0 0 Z " fill="#020202" transform="translate(1270,614)"/>
<path d="M0 0 C9.24 0 18.48 0 28 0 C30.18904458 5.17293613 32.37674999 10.34640088 34.5612793 15.52124023 C35.30239512 17.27578737 36.04423745 19.03002783 36.78686523 20.78393555 C41.02564354 30.79637007 45.19703072 40.81202718 49 51 C49.24532471 50.37883301 49.49064941 49.75766602 49.7434082 49.11767578 C56.26355173 32.63892005 63.05137605 16.30254081 70 0 C78.58 0 87.16 0 96 0 C94.09382613 5.7185216 92.21192386 11.08538754 89.734375 16.5234375 C89.09174663 17.95168232 88.44925597 19.37998911 87.80688477 20.80834961 C87.47149689 21.55067841 87.13610901 22.2930072 86.79055786 23.05783081 C85.72371425 25.4335345 84.67417048 27.81625205 83.62866211 30.20141602 C80.47406489 37.37732834 77.30340539 44.51160563 73.71443176 51.48274231 C61.15584402 75.94097567 60.02293208 97.72867388 61 125 C52.42 125 43.84 125 35 125 C35.1134375 121.94105469 35.226875 118.88210938 35.34375 115.73046875 C35.96539819 90.21584359 33.81262615 70.81038883 21.44818115 48.41934204 C17.19806399 40.7020002 13.69759271 32.67372374 10.18069458 24.60241699 C9.14987864 22.24441026 8.10485832 19.89327803 7.05444336 17.54394531 C6.41376871 16.10617817 5.7732185 14.66835557 5.1328125 13.23046875 C4.84391647 12.58524765 4.55502045 11.94002655 4.25737 11.2752533 C2.60666482 7.54089692 1.29912435 3.89737305 0 0 Z " fill="#020202" transform="translate(1239,293)"/>
<path d="M0 0 C8.58 0 17.16 0 26 0 C26 33.33 26 66.66 26 101 C40.19 101 54.38 101 69 101 C69 108.92 69 116.84 69 125 C46.23 125 23.46 125 0 125 C0 83.75 0 42.5 0 0 Z " fill="#000000" transform="translate(1177,293)"/>
<path d="M0 0 C24.42 0 48.84 0 74 0 C74 7.59 74 15.18 74 23 C65.75 23 57.5 23 49 23 C49 55.67 49 88.34 49 122 C40.75 122 32.5 122 24 122 C24 89.33 24 56.66 24 23 C16.08 23 8.16 23 0 23 C0 15.41 0 7.82 0 0 Z " fill="#010101" transform="translate(1323,457)"/>
<path d="M0 0 C24.42 0 48.84 0 74 0 C74 7.92 74 15.84 74 24 C65.75 24 57.5 24 49 24 C49 55.68 49 87.36 49 120 C41.08 120 33.16 120 25 120 C25 88.32 25 56.64 25 24 C16.75 24 8.5 24 0 24 C0 16.08 0 8.16 0 0 Z " fill="#010101" transform="translate(1040,614)"/>
<path d="M0 0 C8.25 0 16.5 0 25 0 C25 39.6 25 79.2 25 120 C16.75 120 8.5 120 0 120 C0 80.4 0 40.8 0 0 Z " fill="#060606" transform="translate(1126,614)"/>
<path d="M0 0 C5.02557331 3.73696477 7.28455247 7.72172282 8.4375 13.8125 C8.72623463 17.4363049 8.74164178 21.04566977 8.73828125 24.6796875 C8.74256638 25.71384796 8.7468515 26.74800842 8.75126648 27.81350708 C8.75699027 29.99366527 8.75752448 32.17384255 8.75317383 34.35400391 C8.75001673 37.6699316 8.77348837 40.98496383 8.79882812 44.30078125 C8.80110176 46.42708222 8.80180432 48.55338556 8.80078125 50.6796875 C8.809991 51.66121796 8.81920074 52.64274841 8.82868958 53.65402222 C8.77873675 61.17424442 7.91081669 67.8318363 3 73.75 C-2.90022919 78.49896496 -8.15805705 78.44773371 -15.5625 77.8125 C-20.33700976 76.19257705 -22.9189315 74.09690413 -25.5625 69.8125 C-28.14547979 63.12302013 -29.01140806 56.90873115 -28.9609375 49.78125 C-28.96380768 48.86468628 -28.96667786 47.94812256 -28.96963501 47.00378418 C-28.97166105 45.08112972 -28.96623438 43.15845395 -28.95361328 41.23583984 C-28.93753864 38.31951102 -28.95351214 35.40456778 -28.97265625 32.48828125 C-28.97067356 30.60676782 -28.96682935 28.72525525 -28.9609375 26.84375 C-28.96701019 25.98616089 -28.97308289 25.12857178 -28.9793396 24.24499512 C-28.89527117 16.8852924 -27.80120617 9.24113968 -23.125 3.3125 C-16.85002204 -2.80942972 -8.07738837 -2.69246279 0 0 Z " fill="#FAFAFA" transform="translate(892.5625,479.1875)"/>
<path d="M0 0 C4.72740845 2.36370423 6.60614098 5.73912816 8.7421875 10.33984375 C9.65849313 13.31789031 9.88237045 16.023592 9.91918945 19.13330078 C9.93202469 20.08173859 9.94485992 21.03017639 9.95808411 22.00735474 C9.96547104 23.02715424 9.97285797 24.04695374 9.98046875 25.09765625 C9.9885405 26.15588593 9.99661224 27.2141156 10.00492859 28.30441284 C10.01875404 30.54537323 10.02948307 32.78635454 10.03735352 35.02734375 C10.04885566 37.30833142 10.06927921 39.58929255 10.09887695 41.87011719 C10.14176116 45.17531531 10.15775354 48.47971367 10.16796875 51.78515625 C10.18547684 52.79281036 10.20298492 53.80046448 10.22102356 54.83865356 C10.19920643 62.05257659 9.29730194 69.75116165 3.98554993 75.11306763 C-0.73188228 78.77089122 -5.67983758 78.96580102 -11.484375 78.6953125 C-16.24758689 78.08481633 -18.99752252 76.52811716 -22.4453125 73.27734375 C-26.79331203 66.23058589 -27.71036828 58.62358888 -27.62109375 50.4921875 C-27.62159225 49.59544815 -27.62209076 48.6987088 -27.62260437 47.77479553 C-27.62028237 45.89500695 -27.61066604 44.01521413 -27.59399414 42.13549805 C-27.57034114 39.28080057 -27.57345566 36.42703679 -27.58007812 33.57226562 C-27.57450155 31.73306743 -27.5673918 29.89387311 -27.55859375 28.0546875 C-27.55950516 27.21381088 -27.56041656 26.37293427 -27.56135559 25.50657654 C-27.46516136 17.35334068 -26.64868805 9.77894511 -21.2578125 3.33984375 C-15.615053 -2.15822961 -7.30176101 -2.13494396 0 0 Z " fill="#FAFBFB" transform="translate(1180.2578125,478.66015625)"/>
<path d="M0 0 C4.39925378 2.41028158 5.87772732 5.92919992 7.33447266 10.50170898 C8.87983427 15.82003085 9.19026835 20.73416464 9.15234375 26.24609375 C9.15521393 27.18722519 9.15808411 28.12835663 9.16104126 29.0980072 C9.16306766 31.07193612 9.15763845 33.04588577 9.14501953 35.01977539 C9.12892735 38.01950437 9.14492652 41.01788996 9.1640625 44.01757812 C9.16208017 45.9479196 9.1582367 47.87826025 9.15234375 49.80859375 C9.16145279 51.13553001 9.16145279 51.13553001 9.17074585 52.48927307 C9.09702382 59.09987814 8.26986898 65.8045479 4.03515625 71.1171875 C3.44734375 71.560625 2.85953125 72.0040625 2.25390625 72.4609375 C1.3721875 73.15703125 1.3721875 73.15703125 0.47265625 73.8671875 C-4.27066324 76.88566354 -9.84057155 76.39461836 -15.24609375 75.9609375 C-19.47002949 74.42496087 -22.51297004 72.54227202 -25.24609375 68.9609375 C-28.11471191 62.53617318 -28.69100259 56.51567784 -28.64453125 49.5546875 C-28.64740143 48.58994507 -28.65027161 47.62520264 -28.65322876 46.63122559 C-28.65525796 44.60424203 -28.6498088 42.57723837 -28.63720703 40.55029297 C-28.62113724 37.46927596 -28.63709519 34.38957056 -28.65625 31.30859375 C-28.65426737 29.32812214 -28.65042327 27.34765134 -28.64453125 25.3671875 C-28.65060394 24.45755249 -28.65667664 23.54791748 -28.66293335 22.61071777 C-28.58499671 15.43058695 -27.25529229 9.26176368 -23.49609375 3.0859375 C-16.72248513 -3.31135953 -8.17796036 -3.48883632 0 0 Z " fill="#FBFBFB" transform="translate(899.24609375,637.0390625)"/>
<path d="M0 0 C12.07377887 -0.1157201 24.14742637 -0.2046272 36.22164631 -0.25906086 C41.82789473 -0.28518304 47.43376448 -0.32062938 53.03979492 -0.37719727 C58.44738181 -0.43142285 63.85460391 -0.46140077 69.26244164 -0.47438622 C71.32821588 -0.48364306 73.39396958 -0.50171916 75.459589 -0.52865028 C78.34760707 -0.5648148 81.23410734 -0.56995062 84.12231445 -0.56762695 C84.98114731 -0.58560333 85.83998016 -0.60357971 86.72483826 -0.62210083 C89.1085968 -0.60127258 89.1085968 -0.60127258 93 0 C95.62827167 2.98661055 95.96389977 4.58845733 96.3125 8.5625 C96 12 96 12 94 16 C62.98 16 31.96 16 0 16 C0 10.72 0 5.44 0 0 Z " fill="#010101" transform="translate(238,391)"/>
<path d="M0 0 C1.64187001 -0.01737058 3.28429198 -0.00148465 4.92572021 0.04037476 C6.27258911 0.03906052 6.27258911 0.03906052 7.64666748 0.03771973 C10.61264244 0.04189778 13.5763517 0.08855976 16.54193115 0.1355896 C18.59886438 0.14678097 20.65581361 0.15532143 22.71276855 0.16131592 C28.12518515 0.18421874 33.53663476 0.24315525 38.94866943 0.30953979 C44.4718111 0.37093055 49.99510911 0.39832412 55.51849365 0.42855835 C66.35485588 0.49289646 77.19050059 0.59529415 88.02630615 0.7215271 C87.69630615 6.0015271 87.36630615 11.2815271 87.02630615 16.7215271 C75.06555379 16.76779348 63.1048226 16.80336724 51.1439991 16.82515144 C45.59057589 16.83560484 40.03721374 16.84979233 34.48382568 16.87240601 C29.12814608 16.89407902 23.77252533 16.90608399 18.41680527 16.91128159 C16.36979114 16.91498733 14.32278035 16.92222334 12.27579117 16.93298721 C9.41667883 16.94742852 6.55781216 16.94950814 3.69866943 16.94857788 C2.41905334 16.95936371 2.41905334 16.95936371 1.11358643 16.97036743 C-4.74558953 16.94963142 -4.74558953 16.94963142 -6.97369385 14.7215271 C-8.5531543 7.95241087 -8.5531543 7.95241087 -6.51477051 3.62249756 C-3.60312116 0.29847004 -3.60312116 0.29847004 0 0 Z " fill="#000000" transform="translate(422.97369384765625,390.2784729003906)"/>
<path d="M0 0 C3.34125 -0.0825 6.6825 -0.165 10.125 -0.25 C11.16672363 -0.28641602 12.20844727 -0.32283203 13.28173828 -0.36035156 C19.19350321 -0.43085155 22.53259757 0.01942988 27 4 C30.96988498 10.35181597 31.16294582 17.95155305 29.49609375 25.1875 C27.67607819 30.01314124 24.52159356 32.73920322 20 35 C18.47851674 35.08372659 16.95344222 35.10730027 15.4296875 35.09765625 C14.62257324 35.09515869 13.81545898 35.09266113 12.98388672 35.09008789 C11.9579541 35.08098389 10.93202148 35.07187988 9.875 35.0625 C4.986875 35.0315625 4.986875 35.0315625 0 35 C0 23.45 0 11.9 0 0 Z " fill="#F8F8F8" transform="translate(967,479)"/>
<path d="M0 0 C3.01125 -0.061875 6.0225 -0.12375 9.125 -0.1875 C10.06230957 -0.21481201 10.99961914 -0.24212402 11.96533203 -0.27026367 C17.06987699 -0.32081987 20.6042585 0.11020697 25 3 C29.6173853 8.46795627 29.44131991 13.60547911 29.43359375 20.59765625 C28.79935239 25.57445109 27.19471586 28.86655162 23.5625 32.3125 C16.30727674 37.09032995 9.0551033 35 0 35 C0 23.45 0 11.9 0 0 Z " fill="#FBFBFB" transform="translate(779,636)"/>
<path d="M0 0 C3.65140328 1.82570164 4.65080195 6.51518932 6.26953125 10.1171875 C8.28929924 13.48194773 9.35244154 14.56948853 13 16 C16.1985923 16.39311889 19.34396828 16.37732682 22.5625 16.3125 C23.4484082 16.30412109 24.33431641 16.29574219 25.24707031 16.28710938 C31.98774195 16.16423895 38.41395416 15.49926247 45 14 C44.16387755 15.11789265 43.30486418 16.21866998 42.4375 17.3125 C41.72400391 18.23482422 41.72400391 18.23482422 40.99609375 19.17578125 C35.13341795 24.5336474 28.60922832 24.49355267 21.0625 24.4375 C19.63647461 24.4674707 19.63647461 24.4674707 18.18164062 24.49804688 C11.62668629 24.49352933 7.70128162 23.17093753 2 20 C-0.72897167 20.49154083 -0.72897167 20.49154083 -3 22 C-7.91578842 24.6115126 -12.88346558 24.36742284 -18.3125 24.375 C-19.22451172 24.39949219 -20.13652344 24.42398438 -21.07617188 24.44921875 C-27.19928703 24.47555473 -31.93552732 23.58198903 -37 20 C-38.91077534 18.09595171 -40.40515061 16.19291792 -42 14 C-41.43796875 14.144375 -40.8759375 14.28875 -40.296875 14.4375 C-33.73513161 15.8867194 -27.31967746 16.24936557 -20.625 16.3125 C-19.75713867 16.32990234 -18.88927734 16.34730469 -17.99511719 16.36523438 C-13.2200042 16.3615313 -9.76787334 16.2631205 -6 13 C-4.387292 10.65116224 -4.387292 10.65116224 -3.25 8 C-2.84265625 7.13375 -2.4353125 6.2675 -2.015625 5.375 C-0.92890954 2.92381849 -0.92890954 2.92381849 0 0 Z " fill="#F5F5F6" transform="translate(374,569)"/>
<path d="M0 0 C4.62 0 9.24 0 14 0 C18.50776836 4.50776836 18.50776836 4.50776836 18.53125 9.28125 C18.53640625 10.28800781 18.5415625 11.29476563 18.546875 12.33203125 C18.53140625 13.37746094 18.5159375 14.42289062 18.5 15.5 C18.51546875 16.54542969 18.5309375 17.59085937 18.546875 18.66796875 C18.54171875 19.67472656 18.5365625 20.68148438 18.53125 21.71875 C18.52673828 22.63591797 18.52222656 23.55308594 18.51757812 24.49804688 C18 27 18 27 14 31 C9.38 31 4.76 31 0 31 C0 20.77 0 10.54 0 0 Z " fill="#020202" transform="translate(658,381)"/>
<path d="M0 0 C4.62 0 9.24 0 14 0 C14 10.23 14 20.46 14 31 C9.38 31 4.76 31 0 31 C-3.46024738 27.53975262 -3.38290084 26.99291167 -3.3984375 22.34375 C-3.40230469 21.23902344 -3.40617187 20.13429688 -3.41015625 18.99609375 C-3.39855469 17.84238281 -3.38695313 16.68867188 -3.375 15.5 C-3.38660156 14.34628906 -3.39820312 13.19257813 -3.41015625 12.00390625 C-3.40628906 10.89917969 -3.40242188 9.79445313 -3.3984375 8.65625 C-3.39505371 7.64369141 -3.39166992 6.63113281 -3.38818359 5.58789062 C-3 3 -3 3 0 0 Z " fill="#020202" transform="translate(77,381)"/>
<path d="M0 0 C0.66 0 1.32 0 2 0 C2.36351562 0.97839844 2.36351562 0.97839844 2.734375 1.9765625 C6.98162082 13.05207275 12.05112812 19.9075681 22.9375 24.875 C24.62001023 25.59510532 26.30588067 26.30764744 28 27 C23.98522717 29.20193488 20.51634834 29.76300083 16 29 C10.63771276 26.97907793 5.67678928 24.5124232 2 20 C-0.78518047 21.17834558 -2.51494326 22.45772734 -4.8125 24.5 C-8.72130832 27.79470627 -12.48887529 29.10294508 -17.66796875 28.890625 C-20.12510694 28.65496153 -22.55879379 28.36347939 -25 28 C-23.52714928 25.05429857 -21.35348917 24.69795177 -18.375 23.375 C-7.72012136 18.11707649 -3.95755355 10.94254438 0 0 Z " fill="#F7F7F7" transform="translate(374,517)"/>
<path d="M0 0 C2.97 0.33 5.94 0.66 9 1 C9 1.33 9 1.66 9 2 C7.02 2 5.04 2 3 2 C3 14.87 3 27.74 3 41 C1.515 41.495 1.515 41.495 0 42 C0 28.14 0 14.28 0 0 Z " fill="#D0D1D1" transform="translate(967,537)"/>
<path d="M0 0 C19.8 0.495 19.8 0.495 40 1 C40 1.33 40 1.66 40 2 C27.79 2 15.58 2 3 2 C3 6.29 3 10.58 3 15 C2.67 15 2.34 15 2 15 C1.67 18.3 1.34 21.6 1 25 C0.67 25 0.34 25 0 25 C0 16.75 0 8.5 0 0 Z " fill="#E5E5E5" transform="translate(928,367)"/>
<path d="M0 0 C2 2 2 2 2.01171875 4.20703125 C1.90472656 5.06683594 1.79773438 5.92664063 1.6875 6.8125 C1.57921875 7.70324219 1.4709375 8.59398437 1.359375 9.51171875 C0.99544598 12.03153161 0.57868362 14.51992734 0 17 C-1.70812388 13.97036464 -2.42211969 11.38846198 -2.8125 7.9375 C-2.92207031 7.08027344 -3.03164063 6.22304688 -3.14453125 5.33984375 C-3 3 -3 3 -1.51171875 1.19140625 C-0.76341797 0.60166016 -0.76341797 0.60166016 0 0 Z " fill="#F6F6F6" transform="translate(790,525)"/>
<path d="M0 0 C1.98 0.495 1.98 0.495 4 1 C3.03644647 11.55808656 3.03644647 11.55808656 2 16 C0.38766212 13.11095375 -0.3482891 10.72395319 -0.6875 7.4375 C-0.77386719 6.67308594 -0.86023438 5.90867187 -0.94921875 5.12109375 C-1 3 -1 3 0 0 Z " fill="#F7F7F7" transform="translate(785,365)"/>
<path d="M0 0 C0.33 0 0.66 0 1 0 C1.99 4.95 2.98 9.9 4 15 C2.35 14.67 0.7 14.34 -1 14 C-2.59789351 9.04653013 -1.28306814 4.86717585 0 0 Z " fill="#F3F3F3" transform="translate(817,337)"/>
<path d="M0 0 C3.8063457 0.67170806 7.35206816 1.72746564 11 3 C11 3.66 11 4.32 11 5 C4.07 4.505 4.07 4.505 -3 4 C-2.01 2.68 -1.02 1.36 0 0 Z " fill="#F0F1F1" transform="translate(312,540)"/>
<path d="M0 0 C0.66 0 1.32 0 2 0 C2.83796731 4.65537393 3.0161692 8.37078475 2 13 C-0.83857423 10.16142577 -0.90046025 6.86673652 -1 3 C-0.67 2.01 -0.34 1.02 0 0 Z " fill="#F4F4F4" transform="translate(847,368)"/>
<path d="M0 0 C2.29633824 3.44450737 2.54016485 5.93812283 3 10 C1.35 10.33 -0.3 10.66 -2 11 C-1.34 7.37 -0.68 3.74 0 0 Z " fill="#DFE0E0" transform="translate(759,500)"/>
<path d="M0 0 C0.33 0 0.66 0 1 0 C0.67 4.95 0.34 9.9 0 15 C-0.33 13.68 -0.66 12.36 -1 11 C-1.66 11 -2.32 11 -3 11 C-2.01 7.37 -1.02 3.74 0 0 Z " fill="#EFEFEE" transform="translate(477,493)"/>
<path d="M0 0 C1.98 0.66 3.96 1.32 6 2 C2.09971775 4.60018816 -1.47434569 4.15085514 -6 4 C-6 3.67 -6 3.34 -6 3 C-5.195625 2.87625 -4.39125 2.7525 -3.5625 2.625 C-2.716875 2.41875 -1.87125 2.2125 -1 2 C-0.67 1.34 -0.34 0.68 0 0 Z " fill="#D3D3D4" transform="translate(396,542)"/>
<path d="M0 0 C0.33 2.31 0.66 4.62 1 7 C-0.65 6.67 -2.3 6.34 -4 6 C-4 3 -4 3 -2.5625 1.3125 C-1 0 -1 0 0 0 Z " fill="#E5E5E5" transform="translate(820,345)"/>
<path d="M0 0 C2.23551759 3.35327639 2.17283528 3.90743657 1.625 7.6875 C1.51414062 8.49574219 1.40328125 9.30398438 1.2890625 10.13671875 C1.19367187 10.75160156 1.09828125 11.36648438 1 12 C0.67 12 0.34 12 0 12 C-1.28571429 3.42857143 -1.28571429 3.42857143 0 0 Z " fill="#F4F3F3" transform="translate(729,530)"/>
<path d="M0 0 C0.66 0.33 1.32 0.66 2 1 C1.67 1.99 1.34 2.98 1 4 C-1.64 4 -4.28 4 -7 4 C-4.66603411 2.44402274 -2.57343171 1.07918104 0 0 Z " fill="#F3F3F3" transform="translate(434,540)"/>
<path d="M0 0 C0.99 0.33 1.98 0.66 3 1 C2.67 2.65 2.34 4.3 2 6 C1.34 6 0.68 6 0 6 C-0.38218767 4.34385343 -0.71395102 2.67542976 -1 1 C-0.67 0.67 -0.34 0.34 0 0 Z " fill="#F2F3F3" transform="translate(151,438)"/>
</svg>
